<svg width="483" height="512" viewBox="0 0 483 512" fill="none" xmlns="http://www.w3.org/2000/svg">
<path d="M184.171 385.341L145.69 501.056C143.532 507.601 137.478 511.999 130.687 511.999H20.0862C16.7171 511.999 13.4007 511.034 10.558 509.21L1.60889 503.416L215.23 19.314L285.244 0.376953L308.67 14.164C314.355 17.49 318.672 22.801 320.83 29.0776L481.23 490.487C484.863 501.002 477.229 511.999 466.28 511.999H374.104C371.419 511.999 368.787 511.409 366.365 510.176L351.889 503.094L348.52 385.288H184.171V385.341ZM266.346 125.587L210.387 302.994H322.988L266.346 125.587Z" fill="white"/>
<path d="M148.48 371.339L106.367 498.051H8.29456L179.592 5.36523H281.822L453.12 498.051H354.995L312.881 371.339H148.48ZM230.654 111.638L174.749 288.992H287.297L230.654 111.638Z" fill="#000E41"/>
<path d="M281.77 5.36523H179.539L8.29456 498.051H106.367L148.48 371.339H312.881L319.146 390.115L319.198 390.276L355.047 498.051H453.12L281.77 5.36523ZM174.749 288.992L230.707 111.638L283.612 277.404L287.35 289.046H174.749V288.992Z" fill="#000E41"/>
<path d="M421.22 466.401L272.716 39.164C269.821 30.9025 262.135 25.377 253.555 25.377H207.809C199.176 25.377 191.49 30.9025 188.647 39.164L40.1441 466.401C38.1437 472.088 42.3024 478.042 48.2509 478.042H73.4138C84.7318 478.042 94.7865 470.693 98.4188 459.803L134.479 351.384H307.671L292.826 309.004H147.797L224.444 65.9334C226.339 59.8714 234.762 59.8714 236.709 65.8797L362.997 459.749C366.63 470.639 376.684 477.989 388.002 477.989H413.165C419.061 478.042 423.22 472.088 421.22 466.401Z" fill="#3CC6EF"/>
<path d="M460.543 503.415H351.205L309.092 376.703H152.271L110.158 503.415H0.82019L175.855 0H285.508L460.543 503.415ZM358.786 492.685H445.645L278.086 10.7292H183.33L15.7705 492.685H102.63L144.743 365.973H316.672L358.786 492.685ZM294.563 294.356H167.485L230.603 94.2025L294.563 294.356ZM181.961 283.627H280.086L230.708 129.072L181.961 283.627Z" fill="white"/>
<path d="M288.605 275.735L278.58 279.014L314.133 391.904L324.159 388.626L288.605 275.735Z" fill="white"/>
<g opacity="0.5">
<path opacity="0.5" d="M319.094 390.113L312.883 371.337H274.77L248.817 288.99H287.246L319.094 390.113Z" fill="white"/>
</g>
</svg>
